<svg width="93" height="83" viewBox="0 0 93 83" fill="none" xmlns="http://www.w3.org/2000/svg">
<path d="M46.4654 9.73781L83.1742 73.1616H9.75668L46.4654 9.73781ZM1.32293 68.2866C-2.43081 74.7703 2.24918 82.9116 9.75668 82.9116H83.1742C90.6817 82.9116 95.3617 74.7703 91.6079 68.2866L54.8992 4.86281C51.1454 -1.62094 41.7854 -1.62094 38.0317 4.86281L1.32293 68.2866ZM41.5904 34.1616V43.9116C41.5904 46.5928 43.7842 48.7866 46.4654 48.7866C49.1467 48.7866 51.3404 46.5928 51.3404 43.9116V34.1616C51.3404 31.4803 49.1467 29.2866 46.4654 29.2866C43.7842 29.2866 41.5904 31.4803 41.5904 34.1616ZM41.5904 58.5366H51.3404V68.2866H41.5904V58.5366Z" fill="#4B32CE"/>
</svg>
